<?xml version="1.0" encoding="UTF-8" standalone="no"?>
<!DOCTYPE svg PUBLIC "-//W3C//DTD SVG 1.1//EN"
 "http://www.w3.org/Graphics/SVG/1.1/DTD/svg11.dtd">
<!-- Generated by graphviz version 2.38.0 (20140413.2041)
 -->
<!-- Title: G Pages: 1 -->
<svg width="1529pt" height="907pt"
 viewBox="0.00 0.00 1529.00 907.00" xmlns="http://www.w3.org/2000/svg" xmlns:xlink="http://www.w3.org/1999/xlink">
<g id="graph0" class="graph" transform="scale(1 1) rotate(0) translate(4 903)">
<title>G</title>
<polygon fill="white" stroke="none" points="-4,4 -4,-903 1525,-903 1525,4 -4,4"/>
<text text-anchor="middle" x="760.5" y="-14.4" font-family="Verdana" font-size="7.00" fill="#000000">Generated by Python Call Graph v1.0.1</text>
<text text-anchor="middle" x="760.5" y="-6.4" font-family="Verdana" font-size="7.00" fill="#000000">http://pycallgraph.slowchop.com</text>
<g id="clust1" class="cluster"><title>cluster___main__</title>
<polygon fill="none" stroke="#000000" stroke-width="2" stroke-opacity="0.800000" points="754,-820 754,-891 844,-891 844,-820 754,-820"/>
<text text-anchor="middle" x="799" y="-879" font-family="Verdana" font-size="10.00">__main__</text>
</g>
<g id="clust2" class="cluster"><title>cluster_csv2df.runner</title>
<polygon fill="none" stroke="#000000" stroke-width="2" stroke-opacity="0.800000" points="729,-546 729,-794 869,-794 869,-546 729,-546"/>
<text text-anchor="middle" x="799" y="-782" font-family="Verdana" font-size="10.00">csv2df.runner</text>
</g>
<g id="clust3" class="cluster"><title>cluster__handle_fromlist</title>
<polygon fill="none" stroke="#000000" stroke-width="2" stroke-opacity="0.800000" points="1079,-820 1079,-891 1174,-891 1174,-820 1079,-820"/>
<text text-anchor="middle" x="1126.5" y="-879" font-family="Verdana" font-size="10.00">_handle_fromlist</text>
</g>
<g id="clust4" class="cluster"><title>cluster_csv2df.parser</title>
<polygon fill="none" stroke="#000000" stroke-width="2" stroke-opacity="0.800000" points="8,-32 8,-520 725,-520 725,-32 8,-32"/>
<text text-anchor="middle" x="366.5" y="-508" font-family="Verdana" font-size="10.00">csv2df.parser</text>
</g>
<g id="clust5" class="cluster"><title>cluster_csv2df</title>
<polygon fill="none" stroke="#000000" stroke-width="2" stroke-opacity="0.800000" points="733,-112 733,-183 869,-183 869,-112 733,-112"/>
<text text-anchor="middle" x="801" y="-171" font-family="Verdana" font-size="10.00">csv2df</text>
</g>
<g id="clust6" class="cluster"><title>cluster_csv2df.emitter</title>
<polygon fill="none" stroke="#000000" stroke-width="2" stroke-opacity="0.800000" points="877,-112 877,-617 1513,-617 1513,-112 877,-112"/>
<text text-anchor="middle" x="1195" y="-605" font-family="Verdana" font-size="10.00">csv2df.emitter</text>
</g>
<g id="clust7" class="cluster"><title>cluster_ModuleSpec</title>
<polygon fill="none" stroke="#000000" stroke-width="2" stroke-opacity="0.800000" points="1295,-820 1295,-891 1399,-891 1399,-820 1295,-820"/>
<text text-anchor="middle" x="1347" y="-879" font-family="Verdana" font-size="10.00">ModuleSpec</text>
</g>
<!-- __main__ -->
<g id="node1" class="node"><title>__main__</title>
<polygon fill="#e5e5e5" stroke="#e5e5e5" points="836.5,-864 761.5,-864 761.5,-828 836.5,-828 836.5,-864"/>
<text text-anchor="middle" x="799" y="-852.4" font-family="Verdana" font-size="7.00" fill="#000000">__main__</text>
<text text-anchor="middle" x="799" y="-844.4" font-family="Verdana" font-size="7.00" fill="#000000">calls: 1</text>
<text text-anchor="middle" x="799" y="-836.4" font-family="Verdana" font-size="7.00" fill="#000000">time: 0.000000s</text>
</g>
<!-- csv2df.runner.Vintage.__init__ -->
<g id="node2" class="node"><title>csv2df.runner.Vintage.__init__</title>
<polygon fill="#e54ce5" stroke="#e54ce5" points="861,-767 737,-767 737,-731 861,-731 861,-767"/>
<text text-anchor="middle" x="799" y="-755.4" font-family="Verdana" font-size="7.00" fill="#000000">csv2df.runner.Vintage.__init__</text>
<text text-anchor="middle" x="799" y="-747.4" font-family="Verdana" font-size="7.00" fill="#000000">calls: 1</text>
<text text-anchor="middle" x="799" y="-739.4" font-family="Verdana" font-size="7.00" fill="#000000">time: 15.154446s</text>
</g>
<!-- __main__&#45;&gt;csv2df.runner.Vintage.__init__ -->
<g id="edge1" class="edge"><title>__main__&#45;&gt;csv2df.runner.Vintage.__init__</title>
<path fill="none" stroke="#b23bb2" d="M799,-827.576C799,-813.648 799,-793.861 799,-777.757"/>
<polygon fill="#b23bb2" stroke="#b23bb2" points="802.5,-777.314 799,-767.314 795.5,-777.314 802.5,-777.314"/>
<text text-anchor="middle" x="801.5" y="-804.4" font-family="Verdana" font-size="7.00" fill="#000000">1</text>
</g>
<!-- csv2df.runner.get_dataframes -->
<g id="node3" class="node"><title>csv2df.runner.get_dataframes</title>
<polygon fill="#e44de5" stroke="#e44de5" points="861,-687 737,-687 737,-651 861,-651 861,-687"/>
<text text-anchor="middle" x="799" y="-675.4" font-family="Verdana" font-size="7.00" fill="#000000">csv2df.runner.get_dataframes</text>
<text text-anchor="middle" x="799" y="-667.4" font-family="Verdana" font-size="7.00" fill="#000000">calls: 1</text>
<text text-anchor="middle" x="799" y="-659.4" font-family="Verdana" font-size="7.00" fill="#000000">time: 15.084898s</text>
</g>
<!-- csv2df.runner.Vintage.__init__&#45;&gt;csv2df.runner.get_dataframes -->
<g id="edge2" class="edge"><title>csv2df.runner.Vintage.__init__&#45;&gt;csv2df.runner.get_dataframes</title>
<path fill="none" stroke="#b13cb2" d="M799,-730.689C799,-720.894 799,-708.422 799,-697.335"/>
<polygon fill="#b13cb2" stroke="#b13cb2" points="802.5,-697.262 799,-687.262 795.5,-697.262 802.5,-697.262"/>
<text text-anchor="middle" x="801.5" y="-707.4" font-family="Verdana" font-size="7.00" fill="#000000">1</text>
</g>
<!-- csv2df.runner.&lt;listcomp&gt; -->
<g id="node4" class="node"><title>csv2df.runner.&lt;listcomp&gt;</title>
<polygon fill="#ccdde5" stroke="#ccdde5" points="850,-590 740,-590 740,-554 850,-554 850,-590"/>
<text text-anchor="middle" x="795" y="-578.4" font-family="Verdana" font-size="7.00" fill="#000000">csv2df.runner.&lt;listcomp&gt;</text>
<text text-anchor="middle" x="795" y="-570.4" font-family="Verdana" font-size="7.00" fill="#000000">calls: 1</text>
<text text-anchor="middle" x="795" y="-562.4" font-family="Verdana" font-size="7.00" fill="#000000">time: 2.466053s</text>
</g>
<!-- csv2df.runner.get_dataframes&#45;&gt;csv2df.runner.&lt;listcomp&gt; -->
<g id="edge3" class="edge"><title>csv2df.runner.get_dataframes&#45;&gt;csv2df.runner.&lt;listcomp&gt;</title>
<path fill="none" stroke="#9facb2" d="M798.266,-650.576C797.68,-636.648 796.847,-616.861 796.169,-600.757"/>
<polygon fill="#9facb2" stroke="#9facb2" points="799.647,-600.158 795.729,-590.314 792.653,-600.452 799.647,-600.158"/>
<text text-anchor="middle" x="800.5" y="-627.4" font-family="Verdana" font-size="7.00" fill="#000000">1</text>
</g>
<!-- csv2df.emitter.Emitter.__init__ -->
<g id="node21" class="node"><title>csv2df.emitter.Emitter.__init__</title>
<polygon fill="#b06ee5" stroke="#b06ee5" points="1011.5,-590 886.5,-590 886.5,-554 1011.5,-554 1011.5,-590"/>
<text text-anchor="middle" x="949" y="-578.4" font-family="Verdana" font-size="7.00" fill="#000000">csv2df.emitter.Emitter.__init__</text>
<text text-anchor="middle" x="949" y="-570.4" font-family="Verdana" font-size="7.00" fill="#000000">calls: 1</text>
<text text-anchor="middle" x="949" y="-562.4" font-family="Verdana" font-size="7.00" fill="#000000">time: 11.782126s</text>
</g>
<!-- csv2df.runner.get_dataframes&#45;&gt;csv2df.emitter.Emitter.__init__ -->
<g id="edge4" class="edge"><title>csv2df.runner.get_dataframes&#45;&gt;csv2df.emitter.Emitter.__init__</title>
<path fill="none" stroke="#8955b2" d="M826.164,-650.796C850.588,-635.328 886.628,-612.502 913.36,-595.572"/>
<polygon fill="#8955b2" stroke="#8955b2" points="915.463,-598.383 922.038,-590.076 911.717,-592.469 915.463,-598.383"/>
<text text-anchor="middle" x="868.5" y="-627.4" font-family="Verdana" font-size="7.00" fill="#000000">1</text>
</g>
<!-- csv2df.emitter.Emitter.get_dataframe -->
<g id="node31" class="node"><title>csv2df.emitter.Emitter.get_dataframe</title>
<polygon fill="#e1e5e5" stroke="#e1e5e5" points="1315,-590 1163,-590 1163,-554 1315,-554 1315,-590"/>
<text text-anchor="middle" x="1239" y="-578.4" font-family="Verdana" font-size="7.00" fill="#000000">csv2df.emitter.Emitter.get_dataframe</text>
<text text-anchor="middle" x="1239" y="-570.4" font-family="Verdana" font-size="7.00" fill="#000000">calls: 3</text>
<text text-anchor="middle" x="1239" y="-562.4" font-family="Verdana" font-size="7.00" fill="#000000">time: 0.398849s</text>
</g>
<!-- csv2df.runner.get_dataframes&#45;&gt;csv2df.emitter.Emitter.get_dataframe -->
<g id="edge5" class="edge"><title>csv2df.runner.get_dataframes&#45;&gt;csv2df.emitter.Emitter.get_dataframe</title>
<path fill="none" stroke="#afb2b2" d="M861.108,-654.59C937.329,-638.134 1066.99,-610.138 1152.83,-591.606"/>
<polygon fill="#afb2b2" stroke="#afb2b2" points="1153.77,-594.982 1162.81,-589.45 1152.29,-588.14 1153.77,-594.982"/>
<text text-anchor="middle" x="995.5" y="-627.4" font-family="Verdana" font-size="7.00" fill="#000000">3</text>
</g>
<!-- csv2df.parser.extract_tables -->
<g id="node6" class="node"><title>csv2df.parser.extract_tables</title>
<polygon fill="#d8e3e5" stroke="#d8e3e5" points="544.5,-493 425.5,-493 425.5,-457 544.5,-457 544.5,-493"/>
<text text-anchor="middle" x="485" y="-481.4" font-family="Verdana" font-size="7.00" fill="#000000">csv2df.parser.extract_tables</text>
<text text-anchor="middle" x="485" y="-473.4" font-family="Verdana" font-size="7.00" fill="#000000">calls: 8</text>
<text text-anchor="middle" x="485" y="-465.4" font-family="Verdana" font-size="7.00" fill="#000000">time: 1.291548s</text>
</g>
<!-- csv2df.runner.&lt;listcomp&gt;&#45;&gt;csv2df.parser.extract_tables -->
<g id="edge6" class="edge"><title>csv2df.runner.&lt;listcomp&gt;&#45;&gt;csv2df.parser.extract_tables</title>
<path fill="none" stroke="#a8b0b2" d="M739.935,-554.125C686.921,-537.879 606.715,-513.3 550.459,-496.06"/>
<polygon fill="#a8b0b2" stroke="#a8b0b2" points="551.182,-492.621 540.596,-493.037 549.131,-499.314 551.182,-492.621"/>
<text text-anchor="middle" x="679.5" y="-530.4" font-family="Verdana" font-size="7.00" fill="#000000">8</text>
</g>
<!-- _handle_fromlist -->
<g id="node5" class="node"><title>_handle_fromlist</title>
<polygon fill="#e3e5e5" stroke="#e3e5e5" points="1164.5,-864 1087.5,-864 1087.5,-828 1164.5,-828 1164.5,-864"/>
<text text-anchor="middle" x="1126" y="-852.4" font-family="Verdana" font-size="7.00" fill="#000000">_handle_fromlist</text>
<text text-anchor="middle" x="1126" y="-844.4" font-family="Verdana" font-size="7.00" fill="#000000">calls: 226</text>
<text text-anchor="middle" x="1126" y="-836.4" font-family="Verdana" font-size="7.00" fill="#000000">time: 0.002439s</text>
</g>
<!-- csv2df.parser.parse_tables -->
<g id="node7" class="node"><title>csv2df.parser.parse_tables</title>
<polygon fill="#d8e3e5" stroke="#d8e3e5" points="422.5,-413 309.5,-413 309.5,-377 422.5,-377 422.5,-413"/>
<text text-anchor="middle" x="366" y="-401.4" font-family="Verdana" font-size="7.00" fill="#000000">csv2df.parser.parse_tables</text>
<text text-anchor="middle" x="366" y="-393.4" font-family="Verdana" font-size="7.00" fill="#000000">calls: 8</text>
<text text-anchor="middle" x="366" y="-385.4" font-family="Verdana" font-size="7.00" fill="#000000">time: 1.261468s</text>
</g>
<!-- csv2df.parser.extract_tables&#45;&gt;csv2df.parser.parse_tables -->
<g id="edge7" class="edge"><title>csv2df.parser.extract_tables&#45;&gt;csv2df.parser.parse_tables</title>
<path fill="none" stroke="#a8b0b2" d="M458.885,-456.883C441.757,-445.656 419.171,-430.851 400.56,-418.653"/>
<polygon fill="#a8b0b2" stroke="#a8b0b2" points="402.336,-415.632 392.054,-413.078 398.499,-421.487 402.336,-415.632"/>
<text text-anchor="middle" x="432.5" y="-433.4" font-family="Verdana" font-size="7.00" fill="#000000">8</text>
</g>
<!-- csv2df.parser.&lt;listcomp&gt; -->
<g id="node8" class="node"><title>csv2df.parser.&lt;listcomp&gt;</title>
<polygon fill="#d8e3e5" stroke="#d8e3e5" points="514,-333 404,-333 404,-297 514,-297 514,-333"/>
<text text-anchor="middle" x="459" y="-321.4" font-family="Verdana" font-size="7.00" fill="#000000">csv2df.parser.&lt;listcomp&gt;</text>
<text text-anchor="middle" x="459" y="-313.4" font-family="Verdana" font-size="7.00" fill="#000000">calls: 40</text>
<text text-anchor="middle" x="459" y="-305.4" font-family="Verdana" font-size="7.00" fill="#000000">time: 1.280253s</text>
</g>
<!-- csv2df.parser.extract_tables&#45;&gt;csv2df.parser.&lt;listcomp&gt; -->
<g id="edge9" class="edge"><title>csv2df.parser.extract_tables&#45;&gt;csv2df.parser.&lt;listcomp&gt;</title>
<path fill="none" stroke="#a8b0b2" d="M479.328,-456.839C475.542,-444.721 470.768,-428.029 468,-413 463.709,-389.704 461.419,-362.863 460.225,-343.33"/>
<polygon fill="#a8b0b2" stroke="#a8b0b2" points="463.718,-343.09 459.669,-333.299 456.728,-343.478 463.718,-343.09"/>
<text text-anchor="middle" x="470.5" y="-393.4" font-family="Verdana" font-size="7.00" fill="#000000">8</text>
</g>
<!-- csv2df.parser.verify_tables -->
<g id="node17" class="node"><title>csv2df.parser.verify_tables</title>
<polygon fill="#e5e5e5" stroke="#e5e5e5" points="594,-413 482,-413 482,-377 594,-377 594,-413"/>
<text text-anchor="middle" x="538" y="-401.4" font-family="Verdana" font-size="7.00" fill="#000000">csv2df.parser.verify_tables</text>
<text text-anchor="middle" x="538" y="-393.4" font-family="Verdana" font-size="7.00" fill="#000000">calls: 8</text>
<text text-anchor="middle" x="538" y="-385.4" font-family="Verdana" font-size="7.00" fill="#000000">time: 0.012499s</text>
</g>
<!-- csv2df.parser.extract_tables&#45;&gt;csv2df.parser.verify_tables -->
<g id="edge8" class="edge"><title>csv2df.parser.extract_tables&#45;&gt;csv2df.parser.verify_tables</title>
<path fill="none" stroke="#b2b2b2" d="M496.762,-456.689C503.761,-446.389 512.771,-433.129 520.583,-421.632"/>
<polygon fill="#b2b2b2" stroke="#b2b2b2" points="523.545,-423.501 526.27,-413.262 517.755,-419.567 523.545,-423.501"/>
<text text-anchor="middle" x="516.5" y="-433.4" font-family="Verdana" font-size="7.00" fill="#000000">8</text>
</g>
<!-- csv2df.parser.parse_tables&#45;&gt;csv2df.parser.&lt;listcomp&gt; -->
<g id="edge10" class="edge"><title>csv2df.parser.parse_tables&#45;&gt;csv2df.parser.&lt;listcomp&gt;</title>
<path fill="none" stroke="#a8b0b2" d="M386.64,-376.689C399.523,-365.884 416.289,-351.822 430.439,-339.955"/>
<polygon fill="#a8b0b2" stroke="#a8b0b2" points="433.005,-342.37 438.418,-333.262 428.507,-337.007 433.005,-342.37"/>
<text text-anchor="middle" x="421" y="-353.4" font-family="Verdana" font-size="7.00" fill="#000000">16</text>
</g>
<!-- csv2df.parser.fix_multitable_units -->
<g id="node15" class="node"><title>csv2df.parser.fix_multitable_units</title>
<polygon fill="#e5e5e5" stroke="#e5e5e5" points="272.5,-333 135.5,-333 135.5,-297 272.5,-297 272.5,-333"/>
<text text-anchor="middle" x="204" y="-321.4" font-family="Verdana" font-size="7.00" fill="#000000">csv2df.parser.fix_multitable_units</text>
<text text-anchor="middle" x="204" y="-313.4" font-family="Verdana" font-size="7.00" fill="#000000">calls: 8</text>
<text text-anchor="middle" x="204" y="-305.4" font-family="Verdana" font-size="7.00" fill="#000000">time: 0.008787s</text>
</g>
<!-- csv2df.parser.parse_tables&#45;&gt;csv2df.parser.fix_multitable_units -->
<g id="edge11" class="edge"><title>csv2df.parser.parse_tables&#45;&gt;csv2df.parser.fix_multitable_units</title>
<path fill="none" stroke="#b2b2b2" d="M330.448,-376.883C306.392,-365.3 274.429,-349.91 248.657,-337.502"/>
<polygon fill="#b2b2b2" stroke="#b2b2b2" points="249.997,-334.262 239.469,-333.078 246.96,-340.569 249.997,-334.262"/>
<text text-anchor="middle" x="292.5" y="-353.4" font-family="Verdana" font-size="7.00" fill="#000000">8</text>
</g>
<!-- csv2df.parser.split_to_tables -->
<g id="node9" class="node"><title>csv2df.parser.split_to_tables</title>
<polygon fill="#dbe4e5" stroke="#dbe4e5" points="593.5,-253 474.5,-253 474.5,-217 593.5,-217 593.5,-253"/>
<text text-anchor="middle" x="534" y="-241.4" font-family="Verdana" font-size="7.00" fill="#000000">csv2df.parser.split_to_tables</text>
<text text-anchor="middle" x="534" y="-233.4" font-family="Verdana" font-size="7.00" fill="#000000">calls: 288</text>
<text text-anchor="middle" x="534" y="-225.4" font-family="Verdana" font-size="7.00" fill="#000000">time: 0.741815s</text>
</g>
<!-- csv2df.parser.&lt;listcomp&gt;&#45;&gt;csv2df.parser.split_to_tables -->
<g id="edge12" class="edge"><title>csv2df.parser.&lt;listcomp&gt;&#45;&gt;csv2df.parser.split_to_tables</title>
<path fill="none" stroke="#aab1b2" d="M475.645,-296.689C485.84,-286.086 499.052,-272.346 510.325,-260.622"/>
<polygon fill="#aab1b2" stroke="#aab1b2" points="512.993,-262.897 517.402,-253.262 507.948,-258.045 512.993,-262.897"/>
<text text-anchor="middle" x="506" y="-273.4" font-family="Verdana" font-size="7.00" fill="#000000">288</text>
</g>
<!-- csv2df.parser.Table.set_label -->
<g id="node13" class="node"><title>csv2df.parser.Table.set_label</title>
<polygon fill="#dee4e5" stroke="#dee4e5" points="310,-253 190,-253 190,-217 310,-217 310,-253"/>
<text text-anchor="middle" x="250" y="-241.4" font-family="Verdana" font-size="7.00" fill="#000000">csv2df.parser.Table.set_label</text>
<text text-anchor="middle" x="250" y="-233.4" font-family="Verdana" font-size="7.00" fill="#000000">calls: 280</text>
<text text-anchor="middle" x="250" y="-225.4" font-family="Verdana" font-size="7.00" fill="#000000">time: 0.464558s</text>
</g>
<!-- csv2df.parser.&lt;listcomp&gt;&#45;&gt;csv2df.parser.Table.set_label -->
<g id="edge13" class="edge"><title>csv2df.parser.&lt;listcomp&gt;&#45;&gt;csv2df.parser.Table.set_label</title>
<path fill="none" stroke="#adb2b2" d="M413.392,-296.979C381.69,-285.147 339.251,-269.309 305.57,-256.739"/>
<polygon fill="#adb2b2" stroke="#adb2b2" points="306.464,-253.337 295.871,-253.119 304.016,-259.895 306.464,-253.337"/>
<text text-anchor="middle" x="368" y="-273.4" font-family="Verdana" font-size="7.00" fill="#000000">280</text>
</g>
<!-- csv2df.parser.Table.set_splitter -->
<g id="node14" class="node"><title>csv2df.parser.Table.set_splitter</title>
<polygon fill="#e3e5e5" stroke="#e3e5e5" points="456,-253 328,-253 328,-217 456,-217 456,-253"/>
<text text-anchor="middle" x="392" y="-241.4" font-family="Verdana" font-size="7.00" fill="#000000">csv2df.parser.Table.set_splitter</text>
<text text-anchor="middle" x="392" y="-233.4" font-family="Verdana" font-size="7.00" fill="#000000">calls: 280</text>
<text text-anchor="middle" x="392" y="-225.4" font-family="Verdana" font-size="7.00" fill="#000000">time: 0.006354s</text>
</g>
<!-- csv2df.parser.&lt;listcomp&gt;&#45;&gt;csv2df.parser.Table.set_splitter -->
<g id="edge14" class="edge"><title>csv2df.parser.&lt;listcomp&gt;&#45;&gt;csv2df.parser.Table.set_splitter</title>
<path fill="none" stroke="#b0b2b2" d="M444.131,-296.689C435.109,-286.187 423.445,-272.608 413.438,-260.958"/>
<polygon fill="#b0b2b2" stroke="#b0b2b2" points="415.999,-258.567 406.828,-253.262 410.689,-263.129 415.999,-258.567"/>
<text text-anchor="middle" x="435" y="-273.4" font-family="Verdana" font-size="7.00" fill="#000000">280</text>
</g>
<!-- csv2df.parser.Table.label -->
<g id="node18" class="node"><title>csv2df.parser.Table.label</title>
<polygon fill="#dbe4e5" stroke="#dbe4e5" points="716.5,-253 611.5,-253 611.5,-217 716.5,-217 716.5,-253"/>
<text text-anchor="middle" x="664" y="-241.4" font-family="Verdana" font-size="7.00" fill="#000000">csv2df.parser.Table.label</text>
<text text-anchor="middle" x="664" y="-233.4" font-family="Verdana" font-size="7.00" fill="#000000">calls: 1.248</text>
<text text-anchor="middle" x="664" y="-225.4" font-family="Verdana" font-size="7.00" fill="#000000">time: 0.037756s</text>
</g>
<!-- csv2df.parser.&lt;listcomp&gt;&#45;&gt;csv2df.parser.Table.label -->
<g id="edge15" class="edge"><title>csv2df.parser.&lt;listcomp&gt;&#45;&gt;csv2df.parser.Table.label</title>
<path fill="none" stroke="#aeb2b2" d="M503.735,-296.979C534.83,-285.147 576.457,-269.309 609.493,-256.739"/>
<polygon fill="#aeb2b2" stroke="#aeb2b2" points="610.905,-259.947 619.007,-253.119 608.416,-253.404 610.905,-259.947"/>
<text text-anchor="middle" x="575" y="-273.4" font-family="Verdana" font-size="7.00" fill="#000000">560</text>
</g>
<!-- csv2df.parser.Table.__init__ -->
<g id="node10" class="node"><title>csv2df.parser.Table.__init__</title>
<polygon fill="#e0e5e5" stroke="#e0e5e5" points="591,-156 477,-156 477,-120 591,-120 591,-156"/>
<text text-anchor="middle" x="534" y="-144.4" font-family="Verdana" font-size="7.00" fill="#000000">csv2df.parser.Table.__init__</text>
<text text-anchor="middle" x="534" y="-136.4" font-family="Verdana" font-size="7.00" fill="#000000">calls: 280</text>
<text text-anchor="middle" x="534" y="-128.4" font-family="Verdana" font-size="7.00" fill="#000000">time: 0.241758s</text>
</g>
<!-- csv2df.parser.split_to_tables&#45;&gt;csv2df.parser.Table.__init__ -->
<g id="edge16" class="edge"><title>csv2df.parser.split_to_tables&#45;&gt;csv2df.parser.Table.__init__</title>
<path fill="none" stroke="#aeb2b2" d="M534,-216.576C534,-202.648 534,-182.861 534,-166.757"/>
<polygon fill="#aeb2b2" stroke="#aeb2b2" points="537.5,-166.314 534,-156.314 530.5,-166.314 537.5,-166.314"/>
<text text-anchor="middle" x="541" y="-193.4" font-family="Verdana" font-size="7.00" fill="#000000">280</text>
</g>
<!-- csv2df.parser.Table.&lt;genexpr&gt; -->
<g id="node11" class="node"><title>csv2df.parser.Table.&lt;genexpr&gt;</title>
<polygon fill="#dfe5e5" stroke="#dfe5e5" points="551,-76 423,-76 423,-40 551,-40 551,-76"/>
<text text-anchor="middle" x="487" y="-64.4" font-family="Verdana" font-size="7.00" fill="#000000">csv2df.parser.Table.&lt;genexpr&gt;</text>
<text text-anchor="middle" x="487" y="-56.4" font-family="Verdana" font-size="7.00" fill="#000000">calls: 768</text>
<text text-anchor="middle" x="487" y="-48.4" font-family="Verdana" font-size="7.00" fill="#000000">time: 0.003918s</text>
</g>
<!-- csv2df.parser.Table.__init__&#45;&gt;csv2df.parser.Table.&lt;genexpr&gt; -->
<g id="edge17" class="edge"><title>csv2df.parser.Table.__init__&#45;&gt;csv2df.parser.Table.&lt;genexpr&gt;</title>
<path fill="none" stroke="#adb2b2" d="M523.569,-119.689C517.423,-109.49 509.529,-96.3886 502.649,-84.9708"/>
<polygon fill="#adb2b2" stroke="#adb2b2" points="505.561,-83.0212 497.402,-76.2623 499.565,-86.634 505.561,-83.0212"/>
<text text-anchor="middle" x="519" y="-96.4" font-family="Verdana" font-size="7.00" fill="#000000">768</text>
</g>
<!-- csv2df.parser.&lt;genexpr&gt; -->
<g id="node12" class="node"><title>csv2df.parser.&lt;genexpr&gt;</title>
<polygon fill="#c4d7e5" stroke="#c4d7e5" points="676.5,-76 569.5,-76 569.5,-40 676.5,-40 676.5,-76"/>
<text text-anchor="middle" x="623" y="-64.4" font-family="Verdana" font-size="7.00" fill="#000000">csv2df.parser.&lt;genexpr&gt;</text>
<text text-anchor="middle" x="623" y="-56.4" font-family="Verdana" font-size="7.00" fill="#000000">calls: 4.176</text>
<text text-anchor="middle" x="623" y="-48.4" font-family="Verdana" font-size="7.00" fill="#000000">time: 0.100060s</text>
</g>
<!-- csv2df.parser.Table.__init__&#45;&gt;csv2df.parser.&lt;genexpr&gt; -->
<g id="edge18" class="edge"><title>csv2df.parser.Table.__init__&#45;&gt;csv2df.parser.&lt;genexpr&gt;</title>
<path fill="none" stroke="#99a7b2" d="M553.752,-119.689C566.081,-108.884 582.126,-94.8218 595.667,-82.9547"/>
<polygon fill="#99a7b2" stroke="#99a7b2" points="598.09,-85.4856 603.303,-76.2623 593.476,-80.2212 598.09,-85.4856"/>
<text text-anchor="middle" x="591.5" y="-96.4" font-family="Verdana" font-size="7.00" fill="#000000">4176</text>
</g>
<!-- csv2df.parser.Table.has_unknown_lines -->
<g id="node16" class="node"><title>csv2df.parser.Table.has_unknown_lines</title>
<polygon fill="#e3e5e5" stroke="#e3e5e5" points="172,-253 16,-253 16,-217 172,-217 172,-253"/>
<text text-anchor="middle" x="94" y="-241.4" font-family="Verdana" font-size="7.00" fill="#000000">csv2df.parser.Table.has_unknown_lines</text>
<text text-anchor="middle" x="94" y="-233.4" font-family="Verdana" font-size="7.00" fill="#000000">calls: 252</text>
<text text-anchor="middle" x="94" y="-225.4" font-family="Verdana" font-size="7.00" fill="#000000">time: 0.001348s</text>
</g>
<!-- csv2df.parser.fix_multitable_units&#45;&gt;csv2df.parser.Table.has_unknown_lines -->
<g id="edge19" class="edge"><title>csv2df.parser.fix_multitable_units&#45;&gt;csv2df.parser.Table.has_unknown_lines</title>
<path fill="none" stroke="#b1b2b2" d="M179.86,-296.883C164.242,-285.808 143.715,-271.253 126.649,-259.151"/>
<polygon fill="#b1b2b2" stroke="#b1b2b2" points="128.266,-256.007 118.084,-253.078 124.216,-261.717 128.266,-256.007"/>
<text text-anchor="middle" x="160" y="-273.4" font-family="Verdana" font-size="7.00" fill="#000000">252</text>
</g>
<!-- csv2df.parser.verify_tables&#45;&gt;csv2df.parser.&lt;listcomp&gt; -->
<g id="edge20" class="edge"><title>csv2df.parser.verify_tables&#45;&gt;csv2df.parser.&lt;listcomp&gt;</title>
<path fill="none" stroke="#a8b0b2" d="M520.467,-376.689C509.728,-366.086 495.812,-352.346 483.938,-340.622"/>
<polygon fill="#a8b0b2" stroke="#a8b0b2" points="486.059,-337.798 476.484,-333.262 481.141,-342.779 486.059,-337.798"/>
<text text-anchor="middle" x="506" y="-353.4" font-family="Verdana" font-size="7.00" fill="#000000">16</text>
</g>
<!-- csv2df.util_label.make_label -->
<g id="node20" class="node"><title>csv2df.util_label.make_label</title>
<polygon fill="#dfe5e5" stroke="#dfe5e5" points="860.5,-156 741.5,-156 741.5,-120 860.5,-120 860.5,-156"/>
<text text-anchor="middle" x="801" y="-144.4" font-family="Verdana" font-size="7.00" fill="#000000">csv2df.util_label.make_label</text>
<text text-anchor="middle" x="801" y="-136.4" font-family="Verdana" font-size="7.00" fill="#000000">calls: 780</text>
<text text-anchor="middle" x="801" y="-128.4" font-family="Verdana" font-size="7.00" fill="#000000">time: 0.004420s</text>
</g>
<!-- csv2df.parser.Table.label&#45;&gt;csv2df.util_label.make_label -->
<g id="edge21" class="edge"><title>csv2df.parser.Table.label&#45;&gt;csv2df.util_label.make_label</title>
<path fill="none" stroke="#adb2b2" d="M688.81,-216.796C711.02,-201.395 743.748,-178.701 768.13,-161.793"/>
<polygon fill="#adb2b2" stroke="#adb2b2" points="770.152,-164.65 776.375,-156.076 766.163,-158.898 770.152,-164.65"/>
<text text-anchor="middle" x="732" y="-193.4" font-family="Verdana" font-size="7.00" fill="#000000">780</text>
</g>
<!-- csv2df.parser.Table.is_defined -->
<g id="node19" class="node"><title>csv2df.parser.Table.is_defined</title>
<polygon fill="#e5e5e5" stroke="#e5e5e5" points="717,-333 593,-333 593,-297 717,-297 717,-333"/>
<text text-anchor="middle" x="655" y="-321.4" font-family="Verdana" font-size="7.00" fill="#000000">csv2df.parser.Table.is_defined</text>
<text text-anchor="middle" x="655" y="-313.4" font-family="Verdana" font-size="7.00" fill="#000000">calls: 36</text>
<text text-anchor="middle" x="655" y="-305.4" font-family="Verdana" font-size="7.00" fill="#000000">time: 0.002813s</text>
</g>
<!-- csv2df.parser.Table.is_defined&#45;&gt;csv2df.parser.Table.label -->
<g id="edge25" class="edge"><title>csv2df.parser.Table.is_defined&#45;&gt;csv2df.parser.Table.label</title>
<path fill="none" stroke="#b1b2b2" d="M656.997,-296.689C658.128,-286.894 659.567,-274.422 660.846,-263.335"/>
<polygon fill="#b1b2b2" stroke="#b1b2b2" points="664.339,-263.598 662.008,-253.262 657.385,-262.795 664.339,-263.598"/>
<text text-anchor="middle" x="665" y="-273.4" font-family="Verdana" font-size="7.00" fill="#000000">36</text>
</g>
<!-- csv2df.emitter._assert_defined -->
<g id="node22" class="node"><title>csv2df.emitter._assert_defined</title>
<polygon fill="#e5e5e5" stroke="#e5e5e5" points="1012.5,-493 885.5,-493 885.5,-457 1012.5,-457 1012.5,-493"/>
<text text-anchor="middle" x="949" y="-481.4" font-family="Verdana" font-size="7.00" fill="#000000">csv2df.emitter._assert_defined</text>
<text text-anchor="middle" x="949" y="-473.4" font-family="Verdana" font-size="7.00" fill="#000000">calls: 36</text>
<text text-anchor="middle" x="949" y="-465.4" font-family="Verdana" font-size="7.00" fill="#000000">time: 0.004032s</text>
</g>
<!-- csv2df.emitter.Emitter.__init__&#45;&gt;csv2df.emitter._assert_defined -->
<g id="edge22" class="edge"><title>csv2df.emitter.Emitter.__init__&#45;&gt;csv2df.emitter._assert_defined</title>
<path fill="none" stroke="#b2b2b2" d="M949,-553.576C949,-539.648 949,-519.861 949,-503.757"/>
<polygon fill="#b2b2b2" stroke="#b2b2b2" points="952.5,-503.314 949,-493.314 945.5,-503.314 952.5,-503.314"/>
<text text-anchor="middle" x="954" y="-530.4" font-family="Verdana" font-size="7.00" fill="#000000">36</text>
</g>
<!-- csv2df.emitter.Emitter._import -->
<g id="node23" class="node"><title>csv2df.emitter.Emitter._import</title>
<polygon fill="#b06ee5" stroke="#b06ee5" points="1157,-493 1031,-493 1031,-457 1157,-457 1157,-493"/>
<text text-anchor="middle" x="1094" y="-481.4" font-family="Verdana" font-size="7.00" fill="#000000">csv2df.emitter.Emitter._import</text>
<text text-anchor="middle" x="1094" y="-473.4" font-family="Verdana" font-size="7.00" fill="#000000">calls: 36</text>
<text text-anchor="middle" x="1094" y="-465.4" font-family="Verdana" font-size="7.00" fill="#000000">time: 11.775507s</text>
</g>
<!-- csv2df.emitter.Emitter.__init__&#45;&gt;csv2df.emitter.Emitter._import -->
<g id="edge23" class="edge"><title>csv2df.emitter.Emitter.__init__&#45;&gt;csv2df.emitter.Emitter._import</title>
<path fill="none" stroke="#8955b2" d="M975.258,-553.796C998.868,-538.328 1033.71,-515.502 1059.55,-498.572"/>
<polygon fill="#8955b2" stroke="#8955b2" points="1061.49,-501.484 1067.94,-493.076 1057.65,-495.628 1061.49,-501.484"/>
<text text-anchor="middle" x="1017" y="-530.4" font-family="Verdana" font-size="7.00" fill="#000000">36</text>
</g>
<!-- csv2df.emitter._assert_defined&#45;&gt;csv2df.parser.Table.is_defined -->
<g id="edge24" class="edge"><title>csv2df.emitter._assert_defined&#45;&gt;csv2df.parser.Table.is_defined</title>
<path fill="none" stroke="#b2b2b2" d="M885.489,-466.828C856.715,-461.786 822.959,-453.278 795,-439 746.746,-414.357 701.713,-369.319 676.337,-341.115"/>
<polygon fill="#b2b2b2" stroke="#b2b2b2" points="678.661,-338.46 669.412,-333.291 673.419,-343.099 678.661,-338.46"/>
<text text-anchor="middle" x="758" y="-393.4" font-family="Verdana" font-size="7.00" fill="#000000">36</text>
</g>
<!-- csv2df.emitter.Emitter._import&#45;&gt;csv2df.parser.Table.label -->
<g id="edge26" class="edge"><title>csv2df.emitter.Emitter._import&#45;&gt;csv2df.parser.Table.label</title>
<path fill="none" stroke="#aeb2b2" d="M1030.66,-457.467C981.274,-444.078 917.144,-425.457 893,-413 810.947,-370.664 728.704,-297.913 688.818,-260.221"/>
<polygon fill="#aeb2b2" stroke="#aeb2b2" points="691.072,-257.534 681.418,-253.169 686.243,-262.602 691.072,-257.534"/>
<text text-anchor="middle" x="813" y="-353.4" font-family="Verdana" font-size="7.00" fill="#000000">652</text>
</g>
<!-- csv2df.emitter.DatapointMaker.__init__ -->
<g id="node24" class="node"><title>csv2df.emitter.DatapointMaker.__init__</title>
<polygon fill="#e0e5e5" stroke="#e0e5e5" points="1058,-413 902,-413 902,-377 1058,-377 1058,-413"/>
<text text-anchor="middle" x="980" y="-401.4" font-family="Verdana" font-size="7.00" fill="#000000">csv2df.emitter.DatapointMaker.__init__</text>
<text text-anchor="middle" x="980" y="-393.4" font-family="Verdana" font-size="7.00" fill="#000000">calls: 652</text>
<text text-anchor="middle" x="980" y="-385.4" font-family="Verdana" font-size="7.00" fill="#000000">time: 0.006396s</text>
</g>
<!-- csv2df.emitter.Emitter._import&#45;&gt;csv2df.emitter.DatapointMaker.__init__ -->
<g id="edge27" class="edge"><title>csv2df.emitter.Emitter._import&#45;&gt;csv2df.emitter.DatapointMaker.__init__</title>
<path fill="none" stroke="#aeb2b2" d="M1068.98,-456.883C1052.65,-445.706 1031.13,-430.985 1013.35,-418.818"/>
<polygon fill="#aeb2b2" stroke="#aeb2b2" points="1015.19,-415.836 1004.96,-413.078 1011.24,-421.613 1015.19,-415.836"/>
<text text-anchor="middle" x="1047" y="-433.4" font-family="Verdana" font-size="7.00" fill="#000000">652</text>
</g>
<!-- csv2df.emitter.DatapointMaker.make -->
<g id="node25" class="node"><title>csv2df.emitter.DatapointMaker.make</title>
<polygon fill="#e5288b" stroke="#e5288b" points="1193.5,-333 1044.5,-333 1044.5,-297 1193.5,-297 1193.5,-333"/>
<text text-anchor="middle" x="1119" y="-321.4" font-family="Verdana" font-size="7.00" fill="#000000">csv2df.emitter.DatapointMaker.make</text>
<text text-anchor="middle" x="1119" y="-313.4" font-family="Verdana" font-size="7.00" fill="#000000">calls: 10.073</text>
<text text-anchor="middle" x="1119" y="-305.4" font-family="Verdana" font-size="7.00" fill="#000000">time: 11.212558s</text>
</g>
<!-- csv2df.emitter.Emitter._import&#45;&gt;csv2df.emitter.DatapointMaker.make -->
<g id="edge28" class="edge"><title>csv2df.emitter.Emitter._import&#45;&gt;csv2df.emitter.DatapointMaker.make</title>
<path fill="none" stroke="#8757b2" d="M1095.06,-456.73C1096.41,-437.254 1099.19,-404.689 1104,-377 1105.95,-365.798 1108.79,-353.604 1111.49,-343.083"/>
<polygon fill="#8757b2" stroke="#8757b2" points="1114.92,-343.781 1114.09,-333.219 1108.15,-341.995 1114.92,-343.781"/>
<text text-anchor="middle" x="1111" y="-393.4" font-family="Verdana" font-size="7.00" fill="#000000">524</text>
</g>
<!-- csv2df.emitter.&lt;listcomp&gt; -->
<g id="node30" class="node"><title>csv2df.emitter.&lt;listcomp&gt;</title>
<polygon fill="#b569e5" stroke="#b569e5" points="1239.5,-413 1126.5,-413 1126.5,-377 1239.5,-377 1239.5,-413"/>
<text text-anchor="middle" x="1183" y="-401.4" font-family="Verdana" font-size="7.00" fill="#000000">csv2df.emitter.&lt;listcomp&gt;</text>
<text text-anchor="middle" x="1183" y="-393.4" font-family="Verdana" font-size="7.00" fill="#000000">calls: 1.266</text>
<text text-anchor="middle" x="1183" y="-385.4" font-family="Verdana" font-size="7.00" fill="#000000">time: 11.289521s</text>
</g>
<!-- csv2df.emitter.Emitter._import&#45;&gt;csv2df.emitter.&lt;listcomp&gt; -->
<g id="edge29" class="edge"><title>csv2df.emitter.Emitter._import&#45;&gt;csv2df.emitter.&lt;listcomp&gt;</title>
<path fill="none" stroke="#8d52b2" d="M1113.75,-456.689C1126.08,-445.884 1142.13,-431.822 1155.67,-419.955"/>
<polygon fill="#8d52b2" stroke="#8d52b2" points="1158.09,-422.486 1163.3,-413.262 1153.48,-417.221 1158.09,-422.486"/>
<text text-anchor="middle" x="1150.5" y="-433.4" font-family="Verdana" font-size="7.00" fill="#000000">1266</text>
</g>
<!-- csv2df.emitter.DatapointMaker.set_value -->
<g id="node26" class="node"><title>csv2df.emitter.DatapointMaker.set_value</title>
<polygon fill="#9994e5" stroke="#9994e5" points="1079,-253 915,-253 915,-217 1079,-217 1079,-253"/>
<text text-anchor="middle" x="997" y="-241.4" font-family="Verdana" font-size="7.00" fill="#000000">csv2df.emitter.DatapointMaker.set_value</text>
<text text-anchor="middle" x="997" y="-233.4" font-family="Verdana" font-size="7.00" fill="#000000">calls: 10.073</text>
<text text-anchor="middle" x="997" y="-225.4" font-family="Verdana" font-size="7.00" fill="#000000">time: 0.506508s</text>
</g>
<!-- csv2df.emitter.DatapointMaker.make&#45;&gt;csv2df.emitter.DatapointMaker.set_value -->
<g id="edge30" class="edge"><title>csv2df.emitter.DatapointMaker.make&#45;&gt;csv2df.emitter.DatapointMaker.set_value</title>
<path fill="none" stroke="#7773b2" d="M1092.23,-296.883C1074.59,-285.605 1051.3,-270.717 1032.17,-258.487"/>
<polygon fill="#7773b2" stroke="#7773b2" points="1034.02,-255.515 1023.71,-253.078 1030.25,-261.413 1034.02,-255.515"/>
<text text-anchor="middle" x="1072.5" y="-273.4" font-family="Verdana" font-size="7.00" fill="#000000">10073</text>
</g>
<!-- csv2df.emitter.DatapointMaker.as_dict -->
<g id="node28" class="node"><title>csv2df.emitter.DatapointMaker.as_dict</title>
<polygon fill="#e533ab" stroke="#e533ab" points="1252.5,-253 1097.5,-253 1097.5,-217 1252.5,-217 1252.5,-253"/>
<text text-anchor="middle" x="1175" y="-241.4" font-family="Verdana" font-size="7.00" fill="#000000">csv2df.emitter.DatapointMaker.as_dict</text>
<text text-anchor="middle" x="1175" y="-233.4" font-family="Verdana" font-size="7.00" fill="#000000">calls: 10.073</text>
<text text-anchor="middle" x="1175" y="-225.4" font-family="Verdana" font-size="7.00" fill="#000000">time: 10.070713s</text>
</g>
<!-- csv2df.emitter.DatapointMaker.make&#45;&gt;csv2df.emitter.DatapointMaker.as_dict -->
<g id="edge31" class="edge"><title>csv2df.emitter.DatapointMaker.make&#45;&gt;csv2df.emitter.DatapointMaker.as_dict</title>
<path fill="none" stroke="#b22885" d="M1131.43,-296.689C1138.82,-286.389 1148.34,-273.129 1156.6,-261.632"/>
<polygon fill="#b22885" stroke="#b22885" points="1159.62,-263.427 1162.61,-253.262 1153.93,-259.344 1159.62,-263.427"/>
<text text-anchor="middle" x="1159.5" y="-273.4" font-family="Verdana" font-size="7.00" fill="#000000">10073</text>
</g>
<!-- csv2df.emitter.to_float -->
<g id="node27" class="node"><title>csv2df.emitter.to_float</title>
<polygon fill="#9997e5" stroke="#9997e5" points="1046,-156 948,-156 948,-120 1046,-120 1046,-156"/>
<text text-anchor="middle" x="997" y="-144.4" font-family="Verdana" font-size="7.00" fill="#000000">csv2df.emitter.to_float</text>
<text text-anchor="middle" x="997" y="-136.4" font-family="Verdana" font-size="7.00" fill="#000000">calls: 10.123</text>
<text text-anchor="middle" x="997" y="-128.4" font-family="Verdana" font-size="7.00" fill="#000000">time: 0.153452s</text>
</g>
<!-- csv2df.emitter.DatapointMaker.set_value&#45;&gt;csv2df.emitter.to_float -->
<g id="edge32" class="edge"><title>csv2df.emitter.DatapointMaker.set_value&#45;&gt;csv2df.emitter.to_float</title>
<path fill="none" stroke="#7776b2" d="M997,-216.576C997,-202.648 997,-182.861 997,-166.757"/>
<polygon fill="#7776b2" stroke="#7776b2" points="1000.5,-166.314 997,-156.314 993.5,-166.314 1000.5,-166.314"/>
<text text-anchor="middle" x="1008.5" y="-193.4" font-family="Verdana" font-size="7.00" fill="#000000">10073</text>
</g>
<!-- csv2df.emitter.to_float&#45;&gt;csv2df.emitter.to_float -->
<g id="edge35" class="edge"><title>csv2df.emitter.to_float&#45;&gt;csv2df.emitter.to_float</title>
<path fill="none" stroke="#b1b2b2" d="M1046.08,-145.258C1056.49,-144.521 1064,-142.102 1064,-138 1064,-135.437 1061.06,-133.53 1056.32,-132.281"/>
<polygon fill="#b1b2b2" stroke="#b1b2b2" points="1056.49,-128.767 1046.08,-130.742 1055.45,-135.689 1056.49,-128.767"/>
<text text-anchor="middle" x="1069" y="-136.4" font-family="Verdana" font-size="7.00" fill="#000000">50</text>
</g>
<!-- csv2df.emitter.DatapointMaker.get_date -->
<g id="node29" class="node"><title>csv2df.emitter.DatapointMaker.get_date</title>
<polygon fill="#e538b8" stroke="#e538b8" points="1255.5,-156 1094.5,-156 1094.5,-120 1255.5,-120 1255.5,-156"/>
<text text-anchor="middle" x="1175" y="-144.4" font-family="Verdana" font-size="7.00" fill="#000000">csv2df.emitter.DatapointMaker.get_date</text>
<text text-anchor="middle" x="1175" y="-136.4" font-family="Verdana" font-size="7.00" fill="#000000">calls: 10.073</text>
<text text-anchor="middle" x="1175" y="-128.4" font-family="Verdana" font-size="7.00" fill="#000000">time: 9.601194s</text>
</g>
<!-- csv2df.emitter.DatapointMaker.as_dict&#45;&gt;csv2df.emitter.DatapointMaker.get_date -->
<g id="edge33" class="edge"><title>csv2df.emitter.DatapointMaker.as_dict&#45;&gt;csv2df.emitter.DatapointMaker.get_date</title>
<path fill="none" stroke="#b22b8f" d="M1175,-216.576C1175,-202.648 1175,-182.861 1175,-166.757"/>
<polygon fill="#b22b8f" stroke="#b22b8f" points="1178.5,-166.314 1175,-156.314 1171.5,-166.314 1178.5,-166.314"/>
<text text-anchor="middle" x="1186.5" y="-193.4" font-family="Verdana" font-size="7.00" fill="#000000">10073</text>
</g>
<!-- csv2df.emitter.&lt;listcomp&gt;&#45;&gt;csv2df.emitter.DatapointMaker.make -->
<g id="edge34" class="edge"><title>csv2df.emitter.&lt;listcomp&gt;&#45;&gt;csv2df.emitter.DatapointMaker.make</title>
<path fill="none" stroke="#b22275" d="M1168.8,-376.689C1160.26,-366.288 1149.25,-352.869 1139.75,-341.294"/>
<polygon fill="#b22275" stroke="#b22275" points="1142.21,-338.773 1133.16,-333.262 1136.8,-343.213 1142.21,-338.773"/>
<text text-anchor="middle" x="1161.5" y="-353.4" font-family="Verdana" font-size="7.00" fill="#000000">9549</text>
</g>
<!-- csv2df.emitter.Emitter._collect -->
<g id="node32" class="node"><title>csv2df.emitter.Emitter._collect</title>
<polygon fill="#e5e5e5" stroke="#e5e5e5" points="1303,-493 1175,-493 1175,-457 1303,-457 1303,-493"/>
<text text-anchor="middle" x="1239" y="-481.4" font-family="Verdana" font-size="7.00" fill="#000000">csv2df.emitter.Emitter._collect</text>
<text text-anchor="middle" x="1239" y="-473.4" font-family="Verdana" font-size="7.00" fill="#000000">calls: 3</text>
<text text-anchor="middle" x="1239" y="-465.4" font-family="Verdana" font-size="7.00" fill="#000000">time: 0.000028s</text>
</g>
<!-- csv2df.emitter.Emitter.get_dataframe&#45;&gt;csv2df.emitter.Emitter._collect -->
<g id="edge36" class="edge"><title>csv2df.emitter.Emitter.get_dataframe&#45;&gt;csv2df.emitter.Emitter._collect</title>
<path fill="none" stroke="#b2b2b2" d="M1239,-553.576C1239,-539.648 1239,-519.861 1239,-503.757"/>
<polygon fill="#b2b2b2" stroke="#b2b2b2" points="1242.5,-503.314 1239,-493.314 1235.5,-503.314 1242.5,-503.314"/>
<text text-anchor="middle" x="1241.5" y="-530.4" font-family="Verdana" font-size="7.00" fill="#000000">3</text>
</g>
<!-- csv2df.emitter._assert_has_no_duplicate_rows -->
<g id="node33" class="node"><title>csv2df.emitter._assert_has_no_duplicate_rows</title>
<polygon fill="#e4e5e5" stroke="#e4e5e5" points="1505,-493 1321,-493 1321,-457 1505,-457 1505,-493"/>
<text text-anchor="middle" x="1413" y="-481.4" font-family="Verdana" font-size="7.00" fill="#000000">csv2df.emitter._assert_has_no_duplicate_rows</text>
<text text-anchor="middle" x="1413" y="-473.4" font-family="Verdana" font-size="7.00" fill="#000000">calls: 3</text>
<text text-anchor="middle" x="1413" y="-465.4" font-family="Verdana" font-size="7.00" fill="#000000">time: 0.052372s</text>
</g>
<!-- csv2df.emitter.Emitter.get_dataframe&#45;&gt;csv2df.emitter._assert_has_no_duplicate_rows -->
<g id="edge37" class="edge"><title>csv2df.emitter.Emitter.get_dataframe&#45;&gt;csv2df.emitter._assert_has_no_duplicate_rows</title>
<path fill="none" stroke="#b2b2b2" d="M1270.51,-553.796C1299.21,-538.126 1341.74,-514.905 1372.87,-497.913"/>
<polygon fill="#b2b2b2" stroke="#b2b2b2" points="1374.62,-500.94 1381.72,-493.076 1371.27,-494.796 1374.62,-500.94"/>
<text text-anchor="middle" x="1317.5" y="-530.4" font-family="Verdana" font-size="7.00" fill="#000000">3</text>
</g>
<!-- ModuleSpec.parent -->
<g id="node34" class="node"><title>ModuleSpec.parent</title>
<polygon fill="#e5e5e5" stroke="#e5e5e5" points="1391,-864 1303,-864 1303,-828 1391,-828 1391,-864"/>
<text text-anchor="middle" x="1347" y="-852.4" font-family="Verdana" font-size="7.00" fill="#000000">ModuleSpec.parent</text>
<text text-anchor="middle" x="1347" y="-844.4" font-family="Verdana" font-size="7.00" fill="#000000">calls: 37</text>
<text text-anchor="middle" x="1347" y="-836.4" font-family="Verdana" font-size="7.00" fill="#000000">time: 0.000277s</text>
</g>
</g>
</svg>
